<svg width="114" height="114" viewBox="0 0 114 114" fill="none" xmlns="http://www.w3.org/2000/svg">
<mask id="mask0_3390_2326" style="mask-type:alpha" maskUnits="userSpaceOnUse" x="0" y="0" width="114" height="114">
<rect width="114" height="114" rx="27" fill="#D9D9D9"/>
</mask>
<g mask="url(#mask0_3390_2326)">
<rect width="114" height="114" rx="27" fill="white"/>
</g>
<path d="M55.3925 49.8004C55.8934 49.0701 56.4391 48.9778 56.882 48.9778C57.3249 48.9778 58.0605 49.0701 58.5614 49.8004C62.4896 55.1522 68.975 65.8163 73.76 73.6858C76.8815 78.8135 79.2779 82.7549 79.7709 83.2558C81.6164 85.1382 84.1473 83.965 85.6184 81.8295C87.0658 79.7284 87.4665 78.252 87.4665 76.6781C87.4665 75.6051 66.4863 36.9033 64.3746 33.6816C62.3446 30.5839 61.6802 29.8009 58.2055 29.8009H55.6008C52.1339 29.8009 51.633 30.5839 49.6004 33.6816C47.4887 36.9033 26.5059 75.6051 26.5059 76.6754C26.5059 78.252 26.9092 79.7284 28.3592 81.8295C29.8303 83.965 32.3612 85.1382 34.2067 83.2532C34.697 82.7523 37.0935 78.8135 40.2149 73.6832C44.9999 65.8163 51.4643 55.1522 55.3951 49.7977L55.3925 49.8004Z" fill="black"/>
</svg>
