<svg xmlns="http://www.w3.org/2000/svg" xmlns:xlink="http://www.w3.org/1999/xlink" zoomAndPan="magnify" preserveAspectRatio="xMidYMid meet" version="1.0" viewBox="112.5 130.22 150 114.75"><defs><clipPath id="465aadabf1"><path d="M 112.5 144 L 136 144 L 136 244.96875 L 112.5 244.96875 Z M 112.5 144 " clip-rule="nonzero"></path></clipPath><clipPath id="672eec5702"><path d="M 146 144 L 262.5 144 L 262.5 244.96875 L 146 244.96875 Z M 146 144 " clip-rule="nonzero"></path></clipPath><clipPath id="f876719fef"><path d="M 138 130.21875 L 237 130.21875 L 237 244.96875 L 138 244.96875 Z M 138 130.21875 " clip-rule="nonzero"></path></clipPath><clipPath id="18f2807135"><path d="M 231 179 L 237 179 L 237 244.96875 L 231 244.96875 Z M 231 179 " clip-rule="nonzero"></path></clipPath></defs><g clip-path="url(#465aadabf1)"><path fill="#000" d="M 134.855469 163.617188 L 116.964844 144.84375 C 116.925781 144.796875 116.90625 144.742188 116.90625 144.699219 L 112.511719 144.699219 L 112.511719 244.742188 L 116.90625 244.742188 L 116.90625 151.890625 C 116.90625 151.703125 117.136719 151.601562 117.273438 151.742188 L 134.636719 170.042969 C 134.777344 170.1875 135.003906 170.089844 135.003906 169.894531 L 134.914062 163.753906 C 134.914062 163.707031 134.894531 163.65625 134.855469 163.617188 Z M 134.855469 163.617188 " fill-opacity="1" fill-rule="nonzero"></path></g><g clip-path="url(#672eec5702)"><path fill="#000" d="M 257.804688 144.988281 L 187.617188 218.660156 C 187.53125 218.753906 187.394531 218.753906 187.308594 218.660156 L 146.75 176.136719 C 146.613281 175.992188 146.382812 176.089844 146.382812 176.28125 L 146.382812 182.320312 C 146.382812 182.371094 146.402344 182.425781 146.441406 182.46875 L 187.296875 225.371094 C 187.382812 225.460938 187.519531 225.460938 187.605469 225.371094 L 257.632812 151.828125 C 257.773438 151.683594 258 151.78125 258 151.976562 L 258 244.734375 L 262.5 244.734375 L 262.5 144.988281 Z M 257.804688 144.988281 " fill-opacity="1" fill-rule="nonzero"></path></g><g clip-path="url(#f876719fef)"><path fill="#000" d="M 187.589844 187.714844 L 231.542969 141.578125 C 231.679688 141.433594 231.910156 141.53125 231.910156 141.726562 L 231.902344 166.808594 C 231.902344 167 232.136719 167.097656 232.269531 166.960938 L 236.359375 162.574219 C 236.402344 162.527344 236.421875 162.476562 236.421875 162.421875 L 236.421875 130.65625 C 236.421875 130.472656 236.191406 130.375 236.054688 130.515625 L 187.613281 181.289062 C 187.527344 181.382812 187.386719 181.382812 187.304688 181.289062 L 138.699219 130.351562 C 138.558594 130.207031 138.332031 130.304688 138.332031 130.496094 L 138.332031 244.734375 L 143.046875 244.734375 L 142.980469 141.6875 C 142.980469 141.496094 143.210938 141.398438 143.347656 141.539062 L 187.277344 187.710938 C 187.363281 187.808594 187.507812 187.808594 187.589844 187.714844 Z M 187.589844 187.714844 " fill-opacity="1" fill-rule="nonzero"></path></g><g clip-path="url(#18f2807135)"><path fill="#000" d="M 236 179.382812 L 231.980469 183.636719 C 231.941406 183.683594 231.921875 183.734375 231.921875 183.789062 L 231.875 244.734375 L 236.558594 244.734375 L 236.367188 179.53125 C 236.367188 179.335938 236.136719 179.238281 236 179.382812 Z M 236 179.382812 " fill-opacity="1" fill-rule="nonzero"></path></g></svg>